# xmcd
#
# Track frame offsets:
#  150
#  15865
#  36183
#  53065
#  71969
#  98667
#  118753
#  137485
#  162088
#  184820
#  199626
#  221324
#  246045
#
# Disc length: 3598 seconds
#
# Revision: 0
# Processed by: cddbd v1.4PL0 Copyright (c) Steve Scherf et al.
# Submitted via: AltoMP3_Maker 3.0
#
DISCID=a90e0c0d
DTITLE=The Russell Jackson Band - Becoming Blue
DYEAR=1900
DGENRE=
TTITLE0=I'm Becoming the Blues
TTITLE1=Love Affair (With the blues)
TTITLE2=The Thief
TTITLE3=I could love you baby
TTITLE4=24 Hours
TTITLE5=Gangster of Love
TTITLE6=Provin' Ground
TTITLE7=Howlin' at the moon
TTITLE8=The low down
TTITLE9=No naggin' and no braggin'
TTITLE10=midnight believer
TTITLE11=excuse me lady
TTITLE12=soul finger
EXTD=
EXTT0=
EXTT1=
EXTT2=
EXTT3=
EXTT4=
EXTT5=
EXTT6=
EXTT7=
EXTT8=
EXTT9=
EXTT10=
EXTT11=
EXTT12=
PLAYORDER=
